<svg viewBox="0 0 1080 1080" xmlns="http://www.w3.org/2000/svg" font-family="'NanumGothic','Apple SD Gothic Neo','Noto Sans KR',sans-serif">
<defs>
  <linearGradient id="bg" x1="0%" y1="0%" x2="100%" y2="100%">
    <stop offset="0%" style="stop-color:#0F172A"/>
    <stop offset="100%" style="stop-color:#1E293B"/>
  </linearGradient>
  <linearGradient id="accent" x1="0%" y1="0%" x2="100%" y2="0%">
    <stop offset="0%" style="stop-color:#3B82F6"/>
    <stop offset="100%" style="stop-color:#06B6D4"/>
  </linearGradient>
  <linearGradient id="hero" x1="0%" y1="0%" x2="100%" y2="0%">
    <stop offset="0%" style="stop-color:#F59E0B"/>
    <stop offset="100%" style="stop-color:#EF4444"/>
  </linearGradient>
  <filter id="glow"><feGaussianBlur stdDeviation="4" result="b"/><feMerge><feMergeNode in="b"/><feMergeNode in="SourceGraphic"/></feMerge></filter>
</defs>
  <rect width="1080" height="1080" fill="url(#bg)"/>

  <!-- 상단 accent bar -->
  <rect x="0" y="0" width="1080" height="8" fill="url(#accent)"/>

  <!-- 섹션 라벨 -->
  <text x="48" y="80" fill="#64748B" font-size="24" font-weight="700" letter-spacing="6">MARKET STATUS</text>

  <!-- 메인 타이틀 -->
  <text x="48" y="148" fill="#FFFFFF" font-size="58" font-weight="800">삼성전자 노조 18일 총파업 D-1</text>

  <!-- 디바이더 -->
  <rect x="48" y="160" width="100" height="5" fill="url(#accent)" rx="2"/>


  <!-- HERO 영역 -->
  <text x="48" y="270" fill="url(#hero)" font-size="118" font-weight="900" filter="url(#glow)">279,500</text>
  <text x="48" y="318" fill="#94A3B8" font-size="24" font-weight="700">삼성전자 종가 (원)</text>

  <!-- 우측 변동 표시 (방향 자동 분기) -->
  <polygon points="900,275 960,275 930,220" fill="#EF4444" opacity="0.95"/>
  <text x="930" y="312" text-anchor="middle" fill="#EF4444" font-size="22" font-weight="800">+3.33%</text>

  
  <rect x="48.0" y="380" width="317.3333333333333" height="180" fill="#1E293B" rx="14" stroke="#334155" stroke-width="1"/>
  <text x="206.66666666666666" y="420" text-anchor="middle" fill="#64748B" font-size="19" font-weight="700" letter-spacing="2">장중 저점</text>
  <text x="206.66666666666666" y="492" text-anchor="middle" fill="#3B82F6" font-size="58" font-weight="900">263,500</text>
  <text x="206.66666666666666" y="534" text-anchor="middle" fill="#94A3B8" font-size="18">-2.59%</text>
  <rect x="381.3333333333333" y="380" width="317.3333333333333" height="180" fill="#1E293B" rx="14" stroke="#334155" stroke-width="1"/>
  <text x="540.0" y="420" text-anchor="middle" fill="#64748B" font-size="19" font-weight="700" letter-spacing="2">코스피 종가</text>
  <text x="540.0" y="492" text-anchor="middle" fill="#3B82F6" font-size="58" font-weight="900">-1.91%</text>
  <text x="540.0" y="534" text-anchor="middle" fill="#94A3B8" font-size="18">7,132</text>
  <rect x="714.6666666666666" y="380" width="317.3333333333333" height="180" fill="#1E293B" rx="14" stroke="#334155" stroke-width="1"/>
  <text x="873.3333333333333" y="420" text-anchor="middle" fill="#64748B" font-size="19" font-weight="700" letter-spacing="2">외국인 매도</text>
  <text x="873.3333333333333" y="492" text-anchor="middle" fill="#3B82F6" font-size="58" font-weight="900">2.3조</text>
  <text x="873.3333333333333" y="534" text-anchor="middle" fill="#94A3B8" font-size="18">11일 연속</text>
  
  <rect x="48" y="584" width="160" height="42" fill="#3B82F61A" rx="21" stroke="#3B82F655" stroke-width="1"/>
  <text x="128.0" y="611" text-anchor="middle" fill="#3B82F6" font-size="18" font-weight="700">삼성전자노조파업</text>
  <rect x="218" y="584" width="112" height="42" fill="#3B82F61A" rx="21" stroke="#3B82F655" stroke-width="1"/>
  <text x="274.0" y="611" text-anchor="middle" fill="#3B82F6" font-size="18" font-weight="700">27만원선</text>
  <rect x="340" y="584" width="128" height="42" fill="#3B82F61A" rx="21" stroke="#3B82F655" stroke-width="1"/>
  <text x="404.0" y="611" text-anchor="middle" fill="#3B82F6" font-size="18" font-weight="700">HBM사이클</text>
  <rect x="478" y="584" width="144" height="42" fill="#3B82F61A" rx="21" stroke="#3B82F655" stroke-width="1"/>
  <text x="550.0" y="611" text-anchor="middle" fill="#3B82F6" font-size="18" font-weight="700">11거래일매도</text>
  <rect x="632" y="584" width="176" height="42" fill="#3B82F61A" rx="21" stroke="#3B82F655" stroke-width="1"/>
  <text x="720.0" y="611" text-anchor="middle" fill="#3B82F6" font-size="18" font-weight="700">5월21일파업돌입</text>
  
  <text x="48" y="662" fill="#64748B" font-size="19" font-weight="700" letter-spacing="2">주요 포인트</text>
  <circle cx="60" cy="697" r="14" fill="#3B82F6"/>
  <text x="60" y="702" text-anchor="middle" fill="#0F172A" font-size="18" font-weight="800">1</text>
  <text x="86" y="704" fill="#FFFFFF" font-size="23" font-weight="700">파업 5/21~6/7 18일간, 협상 5/20 결렬</text>
  <circle cx="60" cy="739" r="14" fill="#3B82F6"/>
  <text x="60" y="744" text-anchor="middle" fill="#0F172A" font-size="18" font-weight="800">2</text>
  <text x="86" y="746" fill="#FFFFFF" font-size="23" font-weight="700">27만원선 1차 지지, 깨지면 26만원 초반</text>
  <circle cx="60" cy="781" r="14" fill="#3B82F6"/>
  <text x="60" y="786" text-anchor="middle" fill="#0F172A" font-size="18" font-weight="800">3</text>
  <text x="86" y="788" fill="#FFFFFF" font-size="23" font-weight="700">외국인 5월 누적 21조 매도 압력 지속</text>

  <!-- 인용구 박스 -->
  <rect x="48" y="910" width="984" height="120" fill="#1E3A5F" rx="16" opacity="0.75"/>
  <rect x="48" y="910" width="6" height="120" fill="#3B82F6" rx="3"/>
  <text x="76" y="954" fill="#3B82F6" font-size="38" font-weight="900">"</text>
  <text x="104" y="960" fill="#FFFFFF" font-size="32" font-weight="800">파업보다 협상 결렬 빈도가 외국인 비중 축소 명분이 된다</text>
  <text x="76" y="1002" fill="#94A3B8" font-size="20" font-weight="700">— 12시에 만나요</text>

  <!-- 우측 하단 브랜딩 -->
  <text x="1032" y="1058" text-anchor="end" fill="#64748B" font-size="17" font-weight="700" letter-spacing="1">12시에 만나요 · 주식 분석 블로그</text>

</svg>